<svg width="36" height="36" viewBox="0 0 36 36" fill="none" xmlns="http://www.w3.org/2000/svg">
<path d="M21.7416 26.9587H14.2499C12.8166 26.9587 11.7416 26.5753 11.0749 25.817C10.4083 25.0587 10.1499 23.9587 10.3249 22.5337L11.0749 16.2837C11.2916 14.442 11.7583 12.792 15.0083 12.792H21.0083C24.2499 12.792 24.7166 14.442 24.9416 16.2837L25.6916 22.5337C25.8583 23.9587 25.6083 25.067 24.9416 25.817C24.2499 26.5753 23.1833 26.9587 21.7416 26.9587ZM14.9999 14.042C12.5999 14.042 12.4833 14.992 12.3083 16.4253L11.5583 22.6753C11.4333 23.7336 11.5833 24.5087 12.0083 24.9837C12.4333 25.4587 13.1833 25.7003 14.2499 25.7003H21.7416C22.8083 25.7003 23.5583 25.4587 23.9833 24.9837C24.4083 24.5087 24.5583 23.7336 24.4333 22.6753L23.6833 16.4253C23.5083 14.9836 23.3999 14.042 20.9916 14.042H14.9999Z" fill="#1E1B1B"/>
<path d="M21.3333 15.292C20.9917 15.292 20.7083 15.0087 20.7083 14.667V11.7503C20.7083 10.8503 20.15 10.292 19.25 10.292H16.75C15.85 10.292 15.2917 10.8503 15.2917 11.7503V14.667C15.2917 15.0087 15.0083 15.292 14.6667 15.292C14.325 15.292 14.0417 15.0087 14.0417 14.667V11.7503C14.0417 10.1587 15.1583 9.04199 16.75 9.04199H19.25C20.8417 9.04199 21.9583 10.1587 21.9583 11.7503V14.667C21.9583 15.0087 21.675 15.292 21.3333 15.292Z" fill="#1E1B1B"/>
<path d="M25.0083 22.8164H14.6667C14.325 22.8164 14.0417 22.5331 14.0417 22.1914C14.0417 21.8497 14.325 21.5664 14.6667 21.5664H25.0083C25.35 21.5664 25.6333 21.8497 25.6333 22.1914C25.6333 22.5331 25.35 22.8164 25.0083 22.8164Z" fill="#1E1B1B"/>
</svg>
