<svg width="17" height="16" viewBox="0 0 17 16" fill="none" xmlns="http://www.w3.org/2000/svg">
<path d="M7.78656 15.1667C7.46656 15.1667 7.14658 15.0867 6.85325 14.9267C6.25992 14.5934 5.90656 14 5.90656 13.3267V9.76003C5.90656 9.42003 5.68655 8.92001 5.47988 8.66001L2.94655 6.00002C2.52655 5.58002 2.19989 4.84668 2.19989 4.30668V2.76003C2.19989 1.6867 3.01324 0.84668 4.04657 0.84668H12.9399C13.9599 0.84668 14.7866 1.67336 14.7866 2.69336V4.17336C14.7866 4.87336 14.3666 5.68001 13.9666 6.07334C13.7732 6.26668 13.4532 6.26668 13.2599 6.07334C13.0666 5.88001 13.0666 5.56001 13.2599 5.36668C13.5066 5.12001 13.7866 4.56669 13.7866 4.17336V2.69336C13.7866 2.22669 13.4065 1.84668 12.9399 1.84668H4.04657C3.57324 1.84668 3.19989 2.2467 3.19989 2.76003V4.30668C3.19989 4.55335 3.39989 5.04003 3.65989 5.30003L6.22658 8.00002C6.56658 8.42002 6.89988 9.1267 6.89988 9.76003V13.3267C6.89988 13.7667 7.1999 13.98 7.33323 14.0533C7.6199 14.2133 7.95992 14.2067 8.22658 14.0467L9.15989 13.4467C9.39323 13.3 9.69992 13.3667 9.85325 13.6C9.99992 13.8334 9.93323 14.14 9.70656 14.2934L8.76658 14.9C8.46658 15.0734 8.12656 15.1667 7.78656 15.1667Z" fill="#202020"/>
<path d="M9.6268 12.5935C9.37347 12.5935 9.13347 12.5001 8.96014 12.3268C8.75347 12.1201 8.66013 11.8202 8.7068 11.5068L8.83347 10.6068C8.8668 10.3735 9.00681 10.1001 9.17347 9.93348L11.5335 7.57348C11.8535 7.25348 12.1668 7.08681 12.5068 7.05348C12.9201 7.01348 13.3335 7.18681 13.7201 7.57348C14.1068 7.96014 14.2801 8.36681 14.2401 8.78681C14.2068 9.12015 14.0335 9.44016 13.7201 9.76016L11.3601 12.1201C11.1935 12.2868 10.9135 12.4268 10.6801 12.4602L9.78012 12.5868C9.72679 12.5935 9.68014 12.5935 9.6268 12.5935ZM12.6201 8.04015C12.6135 8.04015 12.6068 8.04015 12.6002 8.04015C12.5068 8.04682 12.3801 8.12682 12.2401 8.27349L9.88014 10.6335C9.86014 10.6535 9.8268 10.7201 9.8268 10.7468L9.7068 11.5801L10.5401 11.4602C10.5668 11.4535 10.6335 11.4202 10.6535 11.4002L13.0135 9.04015C13.1535 8.90015 13.2401 8.77348 13.2468 8.68014C13.2601 8.54681 13.1268 8.38682 13.0135 8.27349C12.9068 8.16682 12.7535 8.04015 12.6201 8.04015Z" fill="#202020"/>
<path d="M13.0265 10.2398C12.9798 10.2398 12.9332 10.2332 12.8932 10.2198C12.0132 9.97318 11.3131 9.27318 11.0665 8.39318C10.9931 8.12652 11.1465 7.85319 11.4131 7.77319C11.6798 7.69986 11.9531 7.85318 12.0265 8.11985C12.1798 8.66651 12.6131 9.09986 13.1598 9.25319C13.4265 9.32652 13.5798 9.60652 13.5065 9.87318C13.4465 10.0999 13.2465 10.2398 13.0265 10.2398Z" fill="#202020"/>
</svg>
