<svg width="18" height="18" viewBox="0 0 18 18" fill="none" xmlns="http://www.w3.org/2000/svg">
<path d="M8.99999 17.0417C8.74166 17.0417 8.49166 17.0083 8.28332 16.9333C5.09999 15.8417 0.0416565 11.9667 0.0416565 6.24168C0.0416565 3.32501 2.39999 0.958344 5.29999 0.958344C6.70832 0.958344 8.02499 1.50834 8.99999 2.49168C9.97499 1.50834 11.2917 0.958344 12.7 0.958344C15.6 0.958344 17.9583 3.33334 17.9583 6.24168C17.9583 11.975 12.9 15.8417 9.71666 16.9333C9.50832 17.0083 9.25832 17.0417 8.99999 17.0417ZM5.29999 2.20834C3.09166 2.20834 1.29166 4.01668 1.29166 6.24168C1.29166 11.9333 6.76666 15.1 8.69166 15.7583C8.84166 15.8083 9.16666 15.8083 9.31666 15.7583C11.2333 15.1 16.7167 11.9417 16.7167 6.24168C16.7167 4.01668 14.9167 2.20834 12.7083 2.20834C11.4417 2.20834 10.2667 2.80001 9.50832 3.82501C9.27499 4.14168 8.74166 4.14168 8.50832 3.82501C7.73332 2.79168 6.56666 2.20834 5.29999 2.20834Z" fill="#202020"/>
</svg>
