<svg width="117" height="24" viewBox="0 0 117 24" fill="none" xmlns="http://www.w3.org/2000/svg">
<g clip-path="url(#clip0_179_1458)">
<path d="M40.581 2C36.1947 2 32.2565 4.28235 32.2565 8.47059C32.2565 13.2941 39.2132 13.6235 39.2132 16.0235C39.2132 17.0353 38.0341 17.9529 36.0532 17.9529C33.2234 17.9529 31.101 16.6824 31.101 16.6824L30.2049 20.9176C30.2049 20.9176 32.6338 22 35.8882 22C40.6989 22 44.472 19.6235 44.472 15.3412C44.472 10.2588 37.4917 9.92941 37.4917 7.69412C37.4917 6.89412 38.4586 6.02353 40.4395 6.02353C42.6798 6.02353 44.5192 6.94118 44.5192 6.94118L45.4153 2.84706C45.3917 2.84706 43.3872 2 40.581 2ZM0.397207 2.30588L0.279297 2.91765C0.279297 2.91765 2.1187 3.24706 3.79302 3.92941C5.93898 4.70588 6.08048 5.15294 6.45779 6.54118L10.396 21.6706H15.6784L23.767 2.30588H18.5082L13.2966 15.4824L11.1742 4.30588C10.9855 3.03529 9.99509 2.30588 8.76883 2.30588H0.397207ZM25.8894 2.30588L21.7625 21.6706H26.7855L30.8888 2.30588H25.8894ZM53.8577 2.30588C52.655 2.30588 52.0183 2.94118 51.5466 4.07059L44.189 21.6706H49.4478L50.4619 18.7294H56.8762L57.4893 21.6706H62.135L58.1024 2.30588H53.8577ZM54.5416 7.55294L56.098 14.8235H51.9239L54.5416 7.55294Z" fill="#1434CB"/>
</g>
<path d="M102.823 2.56824H92.3149V21.4262H102.823V2.56824Z" fill="#FF5F00"/>
<path d="M92.9818 11.9972C92.9818 8.33225 94.6831 4.83387 97.5519 2.56825C92.348 -1.52985 84.8091 -0.630267 80.7061 4.60065C76.6031 9.79824 77.5037 17.3281 82.7409 21.4262C87.1108 24.8579 93.2153 24.8579 97.5852 21.4262C94.6831 19.1606 92.9818 15.6622 92.9818 11.9972Z" fill="#EB001B"/>
<path d="M117 11.9972C117 18.6275 111.629 23.9917 104.991 23.9917C102.289 23.9917 99.687 23.0921 97.5854 21.4262C102.789 17.3281 103.69 9.79824 99.5869 4.56733C98.9865 3.83433 98.3193 3.13466 97.5854 2.56825C102.789 -1.52985 110.362 -0.630267 114.431 4.60065C116.099 6.69967 117 9.29847 117 11.9972Z" fill="#F79E1B"/>
<path d="M115.865 19.4274V19.0274H116.032V18.9607H115.632V19.0274H115.799V19.4274H115.865ZM116.633 19.4274V18.9607H116.5L116.366 19.294L116.233 18.9607H116.099V19.4274H116.199V19.0607L116.333 19.3607H116.433L116.566 19.0607V19.4274H116.633Z" fill="#F79E1B"/>
<defs>
<clipPath id="clip0_179_1458">
<rect width="61.8557" height="20" fill="white" transform="translate(0.279297 2)"/>
</clipPath>
</defs>
</svg>
