<svg width="117" height="24" viewBox="0 0 117 24" fill="none" xmlns="http://www.w3.org/2000/svg">
<path d="M102.106 5.60618L99.6148 17.9525C99.6055 17.9978 99.6088 18.0442 99.6246 18.0884C99.6404 18.1326 99.6683 18.1736 99.7063 18.2084C99.7442 18.2432 99.7914 18.271 99.8445 18.2899C99.8975 18.3088 99.9552 18.3184 100.013 18.3179H102.961C103.065 18.3186 103.166 18.2898 103.246 18.2369C103.325 18.184 103.378 18.1104 103.395 18.0294L105.885 5.68308C105.895 5.63774 105.891 5.59135 105.876 5.54714C105.86 5.50294 105.832 5.46199 105.794 5.42718C105.756 5.39237 105.709 5.36453 105.656 5.34561C105.603 5.3267 105.545 5.31717 105.487 5.31769H102.539C102.435 5.31607 102.333 5.34444 102.253 5.39753C102.174 5.45062 102.121 5.52478 102.106 5.60618ZM98.9579 9.20912H96.161C96.0571 9.20832 95.9563 9.23694 95.8769 9.28979C95.7975 9.34263 95.7447 9.4162 95.7283 9.49712L95.6357 9.95165C95.6357 9.95165 93.4634 8.09337 89.6172 9.3492C87.4107 10.0682 86.3515 11.5538 85.9008 12.6421C85.9008 12.6421 84.4703 15.9497 87.7056 17.7703C87.7056 17.7703 90.7055 19.5213 94.0836 17.6625L94.0252 17.9525C94.0117 18.0206 94.0269 18.0903 94.0684 18.151C94.1098 18.2117 94.1754 18.26 94.255 18.2885C94.3077 18.3081 94.3655 18.3179 94.4238 18.3179H97.2226C97.327 18.3195 97.4285 18.2911 97.5082 18.238C97.588 18.1849 97.6405 18.1108 97.656 18.0294L99.3584 9.57451C99.3679 9.52922 99.3645 9.48283 99.3485 9.4387C99.3325 9.39456 99.3043 9.35379 99.2659 9.31933C99.228 9.28421 99.1807 9.25609 99.1275 9.23696C99.0743 9.21784 99.0164 9.20865 98.9579 9.20912ZM94.8423 13.8818C94.7332 14.4725 94.3546 15.0115 93.7775 15.3977C93.198 15.7853 92.4604 15.9945 91.7008 15.9869C91.4029 15.9896 91.1062 15.9556 90.8216 15.886C89.6141 15.5823 88.9249 14.6743 89.123 13.6898C89.233 13.0993 89.612 12.5608 90.189 12.1748C90.768 11.787 91.505 11.5771 92.2645 11.5837C92.5625 11.5812 92.8591 11.6156 93.1436 11.6855C94.3586 11.9872 95.0447 12.8968 94.8454 13.8823H94.8423V13.8818ZM79.907 14.1154C81.4238 14.1154 82.8909 13.6903 84.0432 12.9174C85.1931 12.1471 85.9544 11.0768 86.1888 9.9012C86.6787 7.45565 84.2393 5.32112 80.7812 5.32112H75.2103C75.1063 5.32034 75.0054 5.34903 74.926 5.40197C74.8466 5.45492 74.7939 5.5286 74.7775 5.60961L72.2861 17.9559C72.2725 18.024 72.2877 18.0937 72.3292 18.1544C72.3707 18.2151 72.4362 18.2634 72.5158 18.2919C72.5692 18.3115 72.6263 18.3213 72.6846 18.3213H75.6343C75.7383 18.3221 75.8392 18.2934 75.9186 18.2404C75.998 18.1875 76.0507 18.1138 76.0671 18.0328L76.7984 14.4073C76.8138 14.3258 76.8663 14.2516 76.946 14.1984C77.0258 14.1452 77.1274 14.1167 77.2318 14.1183L79.907 14.1154ZM82.3743 9.79002C82.1924 10.6942 81.2996 11.3598 79.5916 11.3598H77.4081L78.0712 8.07182H80.2156C81.9813 8.07426 82.5562 8.88977 82.3743 9.79247V9.79002Z" fill="#0070E0"/>
<path d="M68.925 9.41882L65.5513 13.8784L63.839 9.45163C63.8122 9.38099 63.757 9.31913 63.6817 9.2754C63.6065 9.23167 63.5152 9.20842 63.4218 9.20918H60.3771C60.2983 9.20834 60.2218 9.22999 60.1617 9.27013C60.1016 9.31028 60.0619 9.36621 60.0499 9.42763C60.0425 9.46835 60.0478 9.50989 60.0654 9.54861L63.1337 17.0053L60.3585 20.5191C60.3349 20.548 60.3191 20.5804 60.3119 20.6143C60.3048 20.6482 60.3065 20.683 60.317 20.7163C60.3275 20.7497 60.3464 20.7811 60.3728 20.8084C60.3991 20.8358 60.4323 20.8587 60.4702 20.8756C60.521 20.8986 60.5787 20.9105 60.6372 20.9099H63.9166C64.0102 20.9102 64.1022 20.8914 64.1839 20.8553C64.2656 20.8193 64.3341 20.7672 64.3828 20.7042L72.9531 9.602C72.9842 9.56334 73.0012 9.51871 73.0024 9.47295C73.0036 9.4272 72.9889 9.38205 72.9599 9.34241C72.931 9.30263 72.889 9.2697 72.8385 9.24705C72.7879 9.22439 72.7306 9.21284 72.6725 9.21359H69.3944C69.3003 9.21291 69.2077 9.23145 69.1254 9.26742C69.0432 9.30338 68.9741 9.35554 68.925 9.41882ZM58.6511 9.20918H55.8517C55.7476 9.2084 55.6465 9.23714 55.567 9.29018C55.4874 9.34322 55.4347 9.41702 55.4183 9.49816L55.3277 9.9522C55.3277 9.9522 53.1535 8.09392 49.3073 9.34975C47.1014 10.0688 46.0416 11.5543 45.5927 12.6427C45.5927 12.6427 44.161 15.9502 47.3957 17.7708C47.3957 17.7708 50.3962 19.5218 53.7743 17.6631L53.716 17.953C53.7022 18.0211 53.7173 18.091 53.7588 18.1517C53.8003 18.2124 53.866 18.2606 53.9457 18.289C53.9984 18.3086 54.0562 18.3184 54.1145 18.3184H56.9133C57.0173 18.319 57.118 18.2902 57.1974 18.2373C57.2767 18.1844 57.3295 18.1108 57.3461 18.0299L59.0491 9.57506C59.063 9.50685 59.048 9.43694 59.0065 9.37612C58.9649 9.3153 58.8992 9.26696 58.8194 9.23857C58.7664 9.21934 58.7094 9.20931 58.6511 9.20918ZM54.5349 13.8828C54.4247 14.4728 54.046 15.011 53.4695 15.3968C52.8903 15.7843 52.1534 15.994 51.394 15.9875C51.0965 15.9901 50.8003 15.956 50.5161 15.8866C49.3091 15.5829 48.6206 14.6748 48.8187 13.6898C48.929 13.0981 49.3094 12.5585 49.8884 12.1724C50.4696 11.7847 51.209 11.5758 51.9701 11.5842C52.2681 11.5818 52.5655 11.616 52.8499 11.6861C54.0525 11.9878 54.7373 12.8969 54.5386 13.8828H54.5349ZM39.6002 14.116C41.1144 14.1153 42.579 13.6902 43.7326 12.9164C44.8815 12.1462 45.6419 11.0763 45.8758 9.90126C46.3663 7.4562 43.9263 5.32167 40.4694 5.32167H34.8979C34.7939 5.32085 34.693 5.34946 34.6135 5.4023C34.534 5.45514 34.4812 5.52871 34.4645 5.60967L31.9811 17.9525C31.9672 18.0207 31.9822 18.0906 32.0237 18.1515C32.0653 18.2123 32.131 18.2606 32.2108 18.289C32.2636 18.3081 32.3213 18.3184 32.3797 18.3184H35.3275C35.4317 18.3192 35.5327 18.2904 35.6122 18.2374C35.6918 18.1844 35.7445 18.1106 35.7609 18.0294L36.491 14.404C36.5065 14.3226 36.559 14.2484 36.6388 14.1953C36.7185 14.1422 36.82 14.1138 36.9243 14.1155L39.6002 14.116ZM42.0675 9.79008C41.8856 10.6942 40.9934 11.3599 39.2855 11.3599H37.1019L37.7637 8.07188H39.9082C41.6745 8.07433 42.2488 8.89033 42.0675 9.79253V9.79008Z" fill="#003087"/>
<path d="M20.5435 5.95594C20.61 3.22973 17.7596 1.13831 13.8402 1.13831H5.73308C5.54416 1.13824 5.36141 1.19139 5.21776 1.28819C5.07411 1.385 4.979 1.51908 4.94956 1.66631L1.70126 17.6792C1.68672 17.7518 1.6923 17.826 1.71759 17.8967C1.74289 17.9674 1.7873 18.0329 1.84779 18.0888C1.90827 18.1446 1.98337 18.1895 2.06794 18.2202C2.1525 18.251 2.24451 18.2669 2.33763 18.267H7.14055L6.38994 21.9747C6.37541 22.0473 6.38098 22.1215 6.40628 22.1922C6.43157 22.2629 6.47599 22.3284 6.53647 22.3843C6.59695 22.4401 6.67206 22.485 6.75662 22.5157C6.84119 22.5465 6.9332 22.5624 7.02632 22.5625H10.9389C11.1277 22.5625 11.2959 22.5091 11.44 22.4126C11.5828 22.3156 11.6064 22.1819 11.6362 22.0345L12.7847 16.7035C12.8139 16.5566 12.9089 16.3656 13.0523 16.2686C13.1957 16.1716 13.3212 16.1187 13.5105 16.1187H15.9045C19.7433 16.1187 22.9996 13.9661 23.595 10.9724C24.0166 8.84769 22.8618 6.91447 20.5435 5.95594Z" fill="#001C64"/>
<path d="M8.17954 12.3615L6.98315 18.3458L6.23192 22.0996C6.21748 22.1722 6.22314 22.2463 6.24852 22.317C6.27389 22.3877 6.31838 22.4532 6.37892 22.509C6.43946 22.5648 6.51461 22.6096 6.5992 22.6403C6.68379 22.671 6.7758 22.6869 6.86892 22.6869H11.01C11.1988 22.6868 11.3813 22.6336 11.5247 22.5368C11.6681 22.44 11.763 22.306 11.7923 22.1589L12.8837 16.703C12.9132 16.5559 13.0082 16.4219 13.1517 16.3251C13.2952 16.2283 13.4778 16.1751 13.6666 16.175H16.1041C19.9428 16.175 23.1992 13.9661 23.7952 10.9724C24.2174 8.84769 22.8615 6.91397 20.5432 5.95544C20.537 6.18173 20.5122 6.40753 20.4681 6.63136C19.8727 9.62402 16.6151 11.8335 12.7776 11.8335H8.96243C8.77356 11.8336 8.59096 11.887 8.44745 11.9838C8.30394 12.0807 8.20895 12.2143 8.17954 12.3615Z" fill="#0070E0"/>
<path d="M6.98258 18.3458H2.16475C2.07165 18.3458 1.97966 18.3299 1.89512 18.2991C1.81058 18.2683 1.73551 18.2235 1.67507 18.1676C1.61464 18.1117 1.57028 18.0462 1.54506 17.9755C1.51985 17.9048 1.51437 17.8306 1.529 17.7581L4.7773 1.50761C4.80673 1.36048 4.90175 1.22645 5.04527 1.12966C5.18879 1.03287 5.37139 0.979661 5.5602 0.979614H13.8399C17.7594 0.979614 20.6097 3.22974 20.5433 5.95545C19.5679 5.55186 18.4218 5.32117 17.1664 5.32117H10.2638C10.0749 5.3211 9.89212 5.37425 9.74847 5.47105C9.60482 5.56785 9.50971 5.70194 9.48027 5.84917L8.1802 12.3615L6.98196 18.3458H6.98258Z" fill="#003087"/>
</svg>
